#N canvas 4 50 1250 756 10;
#X obj 212 526 phasor~;
#X obj 287 523 * 0.8;
#X text 444 44 detune (0-1);
#X text 64 71 freq;
#X obj 447 109 * 7;
#X obj 447 139 - 7;
#X msg 426 202 2;
#X obj 447 176 t b f;
#X obj 446 232 pow;
#X obj 282 318 * -0.107;
#X obj 363 319 * -0.061;
#X obj 434 317 * -0.02;
#X obj 515 319 * 0.02;
#X obj 585 317 * 0.064;
#X obj 667 318 * 0.11;
#X obj 282 347 + 1;
#X obj 282 376 t b f;
#X obj 282 434 phasor~;
#X obj 362 347 + 1;
#X obj 362 376 t b f;
#X obj 362 434 phasor~;
#X obj 433 348 + 1;
#X obj 433 377 t b f;
#X obj 433 435 phasor~;
#X obj 515 348 + 1;
#X obj 515 377 t b f;
#X obj 515 435 phasor~;
#X obj 583 348 + 1;
#X obj 583 377 t b f;
#X obj 583 435 phasor~;
#X obj 666 349 + 1;
#X obj 666 378 t b f;
#X obj 666 436 phasor~;
#X text 750 419 mix (0-1);
#X obj 400 515 *~, f 53;
#X floatatom 750 483 5 0 0 0 - - -;
#X obj 155 666 outlet~;
#X obj 213 575 hip~, f 13;
#X obj 446 63 r o_detune-\$1;
#X obj 750 439 r o_mix-\$1;
#X obj 445 83 / 100;
#X obj 750 461 / 100;
#X obj 161 174 adsr 1 10 100 50 500;
#X obj 292 72 r e_attack-\$1;
#X obj 292 97 r e_decay-\$1;
#X obj 292 122 r e_sustain-\$1;
#X obj 292 147 r e_release-\$1;
#X obj 161 208 *~;
#X obj 195 209 / 127;
#X obj 161 233 *~;
#X obj 156 624 *~, f 10;
#X obj 44 115 unpack;
#X obj 44 233 +;
#X obj 44 255 mtof;
#X obj 59 204 r bp_trans-\$1;
#X obj 44 180 + 1;
#X obj 45 89 inlet notes;
#X obj 44 153 stripnote, f 10;
#X obj 284 406 *, f 5;
#X obj 362 405 *, f 5;
#X obj 433 406 *, f 5;
#X obj 515 406 *, f 5;
#X obj 583 406 *, f 5;
#X obj 666 407 *, f 5;
#X obj 43 283 s freq-\$0;
#X obj 463 349 r freq-\$0;
#X obj 214 490 r freq-\$0;
#X obj 66 361 s~ dbgtab;
#X floatatom 158 155 5 0 0 0 - - -;
#X obj 155 92 inlet ctrl;
#X obj 566 17 inlet ctrl;
#X obj 524 84 - 0.5;
#X obj 522 149 t b f;
#X text 800 38 PB = 0..1 \, but its biploar -1 to 1 \, so (x-0.5 *
2 * 48);
#X obj 707 41 r pb_range-\$1;
#X obj 707 62 * 2;
#X obj 524 127 * 1;
#X obj 566 39 route 0 2 123;
#X obj 670 142 t b;
#X msg 673 191 0;
#X text 131 22 patch based on jp8000 patch from http://www.ghostfact.com/jp-8000-supersaw/
;
#X connect 0 0 37 0;
#X connect 1 0 37 1;
#X connect 4 0 5 0;
#X connect 5 0 7 0;
#X connect 6 0 8 0;
#X connect 7 0 6 0;
#X connect 7 1 8 1;
#X connect 8 0 9 0;
#X connect 8 0 10 0;
#X connect 8 0 11 0;
#X connect 8 0 12 0;
#X connect 8 0 13 0;
#X connect 8 0 14 0;
#X connect 9 0 15 0;
#X connect 10 0 18 0;
#X connect 11 0 21 0;
#X connect 12 0 24 0;
#X connect 13 0 27 0;
#X connect 14 0 30 0;
#X connect 15 0 16 0;
#X connect 16 0 58 0;
#X connect 16 1 58 1;
#X connect 17 0 34 0;
#X connect 18 0 19 0;
#X connect 19 0 59 0;
#X connect 19 1 59 1;
#X connect 20 0 34 0;
#X connect 21 0 22 0;
#X connect 22 0 60 0;
#X connect 22 1 60 1;
#X connect 23 0 34 0;
#X connect 24 0 25 0;
#X connect 25 0 61 0;
#X connect 25 1 61 1;
#X connect 26 0 34 0;
#X connect 27 0 28 0;
#X connect 28 0 62 0;
#X connect 28 1 62 1;
#X connect 29 0 34 0;
#X connect 30 0 31 0;
#X connect 31 0 63 0;
#X connect 31 1 63 1;
#X connect 32 0 34 0;
#X connect 34 0 37 0;
#X connect 35 0 34 1;
#X connect 37 0 50 1;
#X connect 38 0 40 0;
#X connect 39 0 41 0;
#X connect 40 0 4 0;
#X connect 41 0 35 0;
#X connect 42 0 47 0;
#X connect 42 0 47 1;
#X connect 42 0 67 0;
#X connect 43 0 42 2;
#X connect 44 0 42 3;
#X connect 45 0 42 4;
#X connect 46 0 42 5;
#X connect 47 0 49 0;
#X connect 48 0 49 1;
#X connect 49 0 50 0;
#X connect 50 0 36 0;
#X connect 51 0 57 0;
#X connect 51 1 42 0;
#X connect 51 1 57 1;
#X connect 52 0 53 0;
#X connect 53 0 64 0;
#X connect 54 0 52 1;
#X connect 55 0 52 0;
#X connect 56 0 51 0;
#X connect 57 0 55 0;
#X connect 57 1 48 0;
#X connect 58 0 17 0;
#X connect 59 0 20 0;
#X connect 60 0 23 0;
#X connect 61 0 26 0;
#X connect 62 0 29 0;
#X connect 63 0 32 0;
#X connect 65 0 58 0;
#X connect 65 0 59 0;
#X connect 65 0 60 0;
#X connect 65 0 61 0;
#X connect 65 0 62 0;
#X connect 65 0 63 0;
#X connect 66 0 0 0;
#X connect 66 0 1 0;
#X connect 70 0 77 0;
#X connect 71 0 76 0;
#X connect 72 0 55 0;
#X connect 72 1 55 1;
#X connect 74 0 75 0;
#X connect 75 0 76 1;
#X connect 76 0 72 0;
#X connect 77 0 71 0;
#X connect 77 2 78 0;
#X connect 78 0 79 0;
#X connect 79 0 42 0;
