#N canvas 4 386 1540 726 10;
#X obj 25 224 s notesOut-\$1;
#X obj 218 21 r loadbang-\$1;
#X obj 25 186 inlet~ inL-\$1;
#X obj 135 186 inlet~ inR-\$1;
#X obj 822 580 outlet~ outL-\$1;
#X obj 931 580 outlet~ outR-\$1;
#X obj 32 94 r auxIn-\$1;
#X obj 32 119 r expIn-\$1;
#X obj 32 144 r fsIn-\$1;
#X obj 218 49 int 0;
#X obj 218 74 s aux-led-\$1;
#X obj 941 29 r ctrlIn-\$1;
#X obj 119 224 s ctrlOut-\$1;
#X obj 766 39 r notesIn-\$1;
#X obj 765 285 pack 0 0 0, f 11;
#X obj 765 311 route 1 2 3 4 5 6 7 8, f 81;
#X text 1114 289 aircraft carrier;
#X obj 765 258 poly 8 1, f 11;
#N canvas 324 629 450 300 route 0;
#X obj 69 97 unpack 0 0 0;
#X obj 68 68 t l l;
#X obj 68 197 list;
#X obj 139 144 t b;
#X obj 139 123 route 1 0;
#X obj 226 163 unpack 0 0 0;
#X obj 226 194 pack 0 0 0;
#X obj 68 19 inlet msg;
#X obj 68 218 outlet global;
#X obj 226 215 outlet voice;
#X obj 187 162 - 1;
#X connect 0 2 4 0;
#X connect 1 0 0 0;
#X connect 1 1 2 1;
#X connect 1 1 5 0;
#X connect 2 0 8 0;
#X connect 3 0 2 0;
#X connect 4 0 3 0;
#X connect 4 1 3 0;
#X connect 4 2 10 0;
#X connect 5 0 6 1;
#X connect 5 1 6 2;
#X connect 6 0 9 0;
#X connect 7 0 1 0;
#X connect 10 0 6 0;
#X restore 766 96 pd route;
#X obj 765 357 jp \$1;
#X obj 825 357 jp \$1;
#X obj 887 357 jp \$1;
#X obj 946 357 jp \$1;
#X obj 1005 357 jp \$1;
#X obj 1060 357 jp \$1;
#X obj 1114 357 jp \$1;
#X obj 1168 357 jp \$1;
#X obj 920 423 *~ 0.3;
#X obj 921 505 hip~ 5;
#X obj 921 483 lop~ 1000;
#N canvas 324 629 450 300 route 0;
#X obj 69 97 unpack 0 0 0;
#X obj 68 68 t l l;
#X obj 68 197 list;
#X obj 139 144 t b;
#X obj 139 123 route 1 0;
#X obj 234 171 unpack 0 0 0;
#X obj 234 202 pack 0 0 0;
#X obj 68 19 inlet msg;
#X obj 68 218 outlet global;
#X obj 234 223 outlet voice;
#X obj 190 158 - 1;
#X connect 0 2 4 0;
#X connect 1 0 0 0;
#X connect 1 1 2 1;
#X connect 1 1 5 0;
#X connect 2 0 8 0;
#X connect 3 0 2 0;
#X connect 4 0 3 0;
#X connect 4 1 3 0;
#X connect 4 2 10 0;
#X connect 5 0 6 1;
#X connect 5 1 6 2;
#X connect 6 0 9 0;
#X connect 7 0 1 0;
#X connect 10 0 6 0;
#X restore 942 70 pd route;
#X obj 1145 95 unpack 0 0 0;
#X obj 1145 116 sel 123;
#X msg 1145 137 stop;
#X obj 949 221 route 1 2 3 4 5 6 7 8, f 81;
#X text 376 270 TODO: Filter env;
#X obj 289 305 r f_reson-\$1;
#X obj 368 305 r f_env_amt-\$1;
#X obj 469 305 r f_sustain-\$1;
#X obj 469 335 r f_release-\$1;
#X obj 368 335 r f_attack-\$1;
#X obj 289 335 r f_decay-\$1;
#X text 346 23 jp patch based on jp8000 patch from http://www.ghostfact.com/jp-8000-supersaw/
;
#X connect 1 0 9 0;
#X connect 9 0 10 0;
#X connect 11 0 30 0;
#X connect 11 0 31 0;
#X connect 13 0 18 0;
#X connect 14 0 15 0;
#X connect 15 0 19 0;
#X connect 15 1 20 0;
#X connect 15 2 21 0;
#X connect 15 3 22 0;
#X connect 15 4 23 0;
#X connect 15 5 24 0;
#X connect 15 6 25 0;
#X connect 15 7 26 0;
#X connect 17 0 14 0;
#X connect 17 1 14 1;
#X connect 17 2 14 2;
#X connect 18 0 17 0;
#X connect 18 1 15 0;
#X connect 19 0 27 0;
#X connect 20 0 27 0;
#X connect 21 0 27 0;
#X connect 22 0 27 0;
#X connect 23 0 27 0;
#X connect 24 0 27 0;
#X connect 25 0 27 0;
#X connect 26 0 27 0;
#X connect 27 0 29 0;
#X connect 28 0 4 0;
#X connect 28 0 5 0;
#X connect 29 0 28 0;
#X connect 30 0 19 1;
#X connect 30 0 20 1;
#X connect 30 0 21 1;
#X connect 30 0 22 1;
#X connect 30 0 23 1;
#X connect 30 0 24 1;
#X connect 30 0 25 1;
#X connect 30 0 26 1;
#X connect 30 1 34 0;
#X connect 31 0 32 0;
#X connect 32 0 33 0;
#X connect 33 0 17 0;
#X connect 34 0 19 1;
#X connect 34 1 20 1;
#X connect 34 2 21 1;
#X connect 34 3 22 1;
#X connect 34 4 23 1;
#X connect 34 5 24 1;
#X connect 34 6 25 1;
#X connect 34 7 26 1;
