#N canvas 350 141 1049 845 10;
#X obj 536 284 s notesOut-\$1;
#X obj 25 186 inlet~ inL-\$1;
#X obj 135 186 inlet~ inR-\$1;
#X obj 27 601 outlet~ outL-\$1;
#X obj 136 601 outlet~ outR-\$1;
#X obj 242 187 r ctrlIn-\$1;
#X obj 785 387 midiout_p p1 \$1;
#X obj 785 411 midiout_p p2 \$1;
#X obj 785 436 midiout_p p3 \$1;
#X obj 785 461 midiout_p p4 \$1;
#X obj 461 182 r m_smtones-\$1;
#X obj 554 182 r m_octaves-\$1;
#X obj 407 208 expr $i1 + $i2 + ($i3*12);
#X obj 541 111 r notesIn-\$1;
#X text 100 154 Default stuff I didn't touch;
#X text 446 84 Transpose MIDI Input by octaves and/or semitones;
#X obj 541 143 unpack 0 0 0, f 25;
#X obj 536 246 pack 0 0 0, f 26;
#X connect 10 0 12 1;
#X connect 11 0 12 2;
#X connect 12 0 17 0;
#X connect 13 0 16 0;
#X connect 16 0 12 0;
#X connect 16 1 17 1;
#X connect 16 2 17 2;
#X connect 17 0 0 0;
